<?xml version="1.0" encoding="UTF-8"?>
<!-- Generated by jsxcad -->
<!DOCTYPE svg PUBLIC "-//W3C//DTD SVG 1.1 Tiny//EN" "http://www.w3.org/Graphics/SVG/1.1/DTD/svg11-tiny.dtd">
<svg baseProfile="tiny" height="18.814691625751397mm" width="18.84232551937072mm" viewBox="0 0 18.84232551937072 18.814691625751397" version="1.1" stroke="black" stroke-width=".1" fill="none" xmlns="http://www.w3.org/2000/svg">
<path fill="#000000" stroke="#000000" d="M7.39292 18.62176 L5.45951 17.97032 L3.71134 16.91848 L2.23016 15.51544 L1.08523 13.82678 L0.33007 11.93148 L0 9.91815 L0.11045 7.88093 L0.65627 5.91509 L1.61192 4.11255 L2.93272 2.55758 L4.55691 1.3229 L6.40855 0.46624 L8.40106 0.02765 L10.44127 0.02765 L12.43377 0.46624 L14.28541 1.3229 L15.90961 2.55758 L17.23041 4.11255 L18.18606 5.91509 L18.73187 7.88093 L18.84233 9.91815 L18.51226 11.93148 L17.7571 13.82678 L16.61216 15.51544 L15.13098 16.91848 L13.38282 17.97032 L11.44941 18.62176 L9.42116 18.84235 M7.46658 10.96607 L9.42116 11.90735 L10.28077 11.49338 L11.37574 10.96607 L11.85848 8.85104 L10.50587 7.15492 L9.56952 7.15492 L8.33645 7.15492 L6.98384 8.85104 z"/>
<path fill="#000000" stroke="#000000" d="M7.392919879654143 18.62176110656187 L7.392919879654143 18.62176110656187 L9.421160482313931 18.842345565196627 L9.421160482313931 18.842345565196627 z"/>
<path fill="#000000" stroke="#000000" d="M11.449410067968545 18.621760624960444 L11.449410067968545 18.621760624960444 L9.421159582205977 18.842346158447405 L9.421159582205977 18.842346158447405 z"/>
<path fill="#000000" stroke="#000000" d="M16.612158535802866 15.515438454265881 L16.612158535802866 15.515438454265881 L15.130982641008753 16.91848278807904 L15.130982641008753 16.91848278807904 z"/>
<path fill="#000000" stroke="#000000" d="M13.382819006588866 17.97031834893785 L13.382819006588866 17.97031834893785 L15.130982110850791 16.918483508261303 L15.130982110850791 16.918483508261303 z"/>
<path fill="#000000" stroke="#000000" d="M17.75709886105309 13.826779546202074 L17.75709886105309 13.826779546202074 L18.5122558753952 11.931478356607244 L18.5122558753952 11.931478356607244 z"/>
<path fill="#000000" stroke="#000000" d="M17.75709899070128 13.826779315678486 L17.75709899070128 13.826779315678486 L16.612159066645805 15.515439367170156 L16.612159066645805 15.515439367170156 z"/>
<path fill="#000000" stroke="#000000" d="M18.84232506435661 9.918149190842339 L18.84232506435661 9.918149190842339 L18.512256330628432 11.931479398437066 L18.512256330628432 11.931479398437066 z"/>
<path fill="#000000" stroke="#000000" d="M13.382819605298545 17.970318828567827 L13.382819605298545 17.970318828567827 L11.449410112842658 18.621760334905073 L11.449410112842658 18.621760334905073 z"/>
<path fill="#000000" stroke="#000000" d="M18.731870238646444 7.88092993374014 L18.731870238646444 7.88092993374014 L18.186057649012024 5.9150906527485985 L18.186057649012024 5.9150906527485985 z"/>
<path fill="#000000" stroke="#000000" d="M17.2304105127406 4.1125497281621355 L17.2304105127406 4.1125497281621355 L18.186057566602685 5.9150912901056065 L18.186057566602685 5.9150912901056065 z"/>
<path fill="#000000" stroke="#000000" d="M18.731870852303203 7.880929953789463 L18.731870852303203 7.880929953789463 L18.84232572628638 9.91815023171402 L18.84232572628638 9.91815023171402 z"/>
<path fill="#000000" stroke="#000000" d="M10.44127 0.02765418712431611 L10.44127 0.02765418712431611 L8.40106 0.02765418712431611 L8.40106 0.02765418712431611 z"/>
<path fill="#000000" stroke="#000000" d="M15.909609754256842 2.5575803232695957 L15.909609754256842 2.5575803232695957 L14.285412038155444 1.3228973188523632 L14.285412038155444 1.3228973188523632 z"/>
<path fill="#000000" stroke="#000000" d="M12.43377118317133 0.46623744261707784 L12.43377118317133 0.46623744261707784 L14.285411226420862 1.322897349134746 L14.285411226420862 1.322897349134746 z"/>
<path fill="#000000" stroke="#000000" d="M12.433770514528454 0.466237662473665 L12.433770514528454 0.466237662473665 L10.441268922154604 0.027654896700994747 L10.441268922154604 0.027654896700994747 z"/>
<path fill="#000000" stroke="#000000" d="M15.909609162584168 2.5575807113074185 L15.909609162584168 2.5575807113074185 L17.23041115093892 4.112549022383668 L17.23041115093892 4.112549022383668 z"/>
<path fill="#000000" stroke="#000000" d="M4.556909983235876 1.3228999779471722 L4.556909983235876 1.3228999779471722 L2.9327186047761717 2.5575781646144415 L2.9327186047761717 2.5575781646144415 z"/>
<path fill="#000000" stroke="#000000" d="M6.408549740534307 0.4662388212354717 L6.408549740534307 0.4662388212354717 L8.401060870785253 0.027653956017294593 L8.401060870785253 0.027653956017294593 z"/>
<path fill="#000000" stroke="#000000" d="M6.408549789931576 0.466239545944544 L6.408549789931576 0.466239545944544 L4.556909746682044 1.3228994524622122 L4.556909746682044 1.3228994524622122 z"/>
<path fill="#000000" stroke="#000000" d="M1.6119162463038637 4.112546811581763 L1.6119162463038637 4.112546811581763 L2.932718234658617 2.557578500505514 L2.932718234658617 2.557578500505514 z"/>
<path fill="#000000" stroke="#000000" d="M0.6562689358470777 5.915089435821827 L0.6562689358470777 5.915089435821827 L1.6119159897091582 4.112547873878356 L1.6119159897091582 4.112547873878356 z"/>
<path fill="#000000" stroke="#000000" d="M0.11045488569511876 7.880931356506572 L0.11045488569511876 7.880931356506572 L0.6562681910436611 5.915089497745744 L0.6562681910436611 5.915089497745744 z"/>
<path fill="#000000" stroke="#000000" d="M-1.9378283852602747e-7 9.918149989493399 L-1.9378283852602747e-7 9.918149989493399 L0.11045465089012173 7.880930252163935 L0.11045465089012173 7.880930252163935 z"/>
<path fill="#000000" stroke="#000000" d="M1.0852279397581523 13.826781396878632 L1.0852279397581523 13.826781396878632 L2.2301647145044017 15.5154368034867 L2.2301647145044017 15.5154368034867 z"/>
<path fill="#000000" stroke="#000000" d="M0.3300693060156556 11.931480113772958 L0.3300693060156556 11.931480113772958 L5.72287473264759e-7 9.91814990617823 L5.72287473264759e-7 9.91814990617823 z"/>
<path fill="#000000" stroke="#000000" d="M0.3300702578318289 11.93147989727041 L0.3300702578318289 11.93147989727041 L1.0852272721739402 13.826781086865239 L1.0852272721739402 13.826781086865239 z"/>
<path fill="#000000" stroke="#000000" d="M3.7113399692702536 16.918480032440996 L3.7113399692702536 16.918480032440996 L2.2301640744761393 15.515435698627837 L2.2301640744761393 15.515435698627837 z"/>
<path fill="#000000" stroke="#000000" d="M5.459509802478781 17.970320328282817 L5.459509802478781 17.970320328282817 L3.7113393561746513 16.91848107004605 L3.7113393561746513 16.91848107004605 z"/>
<path fill="#000000" stroke="#000000" d="M5.4595099378857626 17.970320184348484 L5.4595099378857626 17.970320184348484 L7.39291943034165 18.621761690685727 L7.39291943034165 18.621761690685727 z"/>
<path fill="#000000" stroke="#000000" d="M3.71134 16.91848 L5.45951 17.97032 L7.39292 18.62176 L9.42116 18.84235 L11.44941 18.62176 L13.38282 17.97032 L15.13098 16.91848 L16.61216 15.51544 L17.7571 13.82678 L18.51226 11.93148 L18.84233 9.91815 L18.73187 7.88093 L18.18606 5.91509 L17.23041 4.11255 L15.90961 2.55758 L14.28541 1.3229 L12.43377 0.46624 L10.44127 0.02765 L8.40106 0.02765 L6.40855 0.46624 L4.55691 1.3229 L2.93272 2.55758 L1.61192 4.11255 L0.65627 5.91509 L0.11045 7.88093 L0 9.91815 L0.33007 11.93148 L1.08523 13.82678 L2.23016 15.51544 M7.42116 5.94324 L9.28883 5.4428 L9.42116 5.40735 L11.42116 5.94324 L12.88526 7.40735 L13.42116 9.40735 L12.88526 11.40735 L11.42116 12.87145 L10.54517 13.10617 L9.42116 13.40735 L7.42116 12.87145 L5.95706 11.40735 L5.42116 9.40735 L5.95706 7.40735 z"/>
<path fill="#000000" stroke="#000000" d="M9.42115913808279 13.40734678328118 L9.42115913808279 13.40734678328118 L10.545169745136663 13.10616904883708 L11.42115954186723 12.871448290225223 L11.42115954186723 12.871448290225223 z"/>
<path fill="#000000" stroke="#000000" d="M7.421160827860502 12.871446910382542 L7.421160827860502 12.871446910382542 L9.421161231644941 13.407345403438502 L9.421161231644941 13.407345403438502 z"/>
<path fill="#000000" stroke="#000000" d="M9.42115913808279 5.407346783281182 L9.42115913808279 5.407346783281182 L9.288831067241393 5.442803982999103 L7.421161234298352 5.943244606464161 L7.421161234298352 5.943244606464161 z"/>
<path fill="#000000" stroke="#000000" d="M5.957058478711652 7.4073484787116515 L5.957058478711652 7.4073484787116515 L7.4211634787116525 5.943243478711652 L7.4211634787116525 5.943243478711652 z"/>
<path fill="#000000" stroke="#000000" d="M5.421161528040419 9.407350409437194 L5.421161528040419 9.407350409437194 L5.957060021096378 7.4073500056527575 L5.957060021096378 7.4073500056527575 z"/>
<path fill="#000000" stroke="#000000" d="M5.957062114658529 11.407349433378952 L5.957062114658529 11.407349433378952 L5.421163621602569 9.407349029594515 L5.421163621602569 9.407349029594515 z"/>
<path fill="#000000" stroke="#000000" d="M7.421162665835952 12.871447334164046 L7.421162665835952 12.871447334164046 L5.957062665835953 11.407347334164045 L5.957062665835953 11.407347334164045 z"/>
<path fill="#000000" stroke="#000000" d="M13.421161528040418 9.407350409437194 L13.421161528040418 9.407350409437194 L12.88526303498446 11.407350813221633 L12.88526303498446 11.407350813221633 z"/>
<path fill="#000000" stroke="#000000" d="M11.421160093849407 12.871450093849406 L11.421160093849407 12.871450093849406 L12.885260093849407 11.407350093849406 L12.885260093849407 11.407350093849406 z"/>
<path fill="#000000" stroke="#000000" d="M12.88526512854661 7.407348625810077 L12.88526512854661 7.407348625810077 L13.421163621602568 9.407349029594515 L13.421163621602568 9.407349029594515 z"/>
<path fill="#000000" stroke="#000000" d="M11.421159280973708 5.943240719026291 L11.421159280973708 5.943240719026291 L12.885264280973708 7.407345719026291 L12.885264280973708 7.407345719026291 z"/>
<path fill="#000000" stroke="#000000" d="M9.421161231644941 5.407345403438502 L9.421161231644941 5.407345403438502 L11.421159135429379 5.9432432266214805 L11.421159135429379 5.9432432266214805 z"/>
<path fill="#000000" stroke="#000000" d="M7.42116 12.87145 L9.42116 13.40735 L11.42116 12.87145 L12.88526 11.40735 L13.42116 9.40735 L12.88526 7.40735 L11.42116 5.94324 L9.42116 5.40735 L7.42116 5.94324 L5.95706 7.40735 L5.42116 9.40735 L5.95706 11.40735 M11.34724 8.20997 L11.85848 8.85104 L11.37574 10.96607 L9.42116 11.90735 L8.95969 11.68511 L7.46658 10.96607 L6.98384 8.85104 L7.89437 7.70928 L8.33645 7.15492 L9.51985 7.15492 L10.50587 7.15492 z"/>
<path fill="#000000" stroke="#000000" d="M11.858479857294828 8.851040113803576 L11.858479857294828 8.851040113803576 L11.34724214010154 8.20996829332597 L10.505869512329236 7.154920388904456 L10.505869512329236 7.154920388904456 z"/>
<path fill="#000000" stroke="#000000" d="M10.50587 7.15492364311965 L10.50587 7.15492364311965 L9.51985 7.15492364311965 L8.33645 7.154923643119651 L8.33645 7.154923643119651 L9.56952 7.15492364311965 z"/>
<path fill="#000000" stroke="#000000" d="M6.9838420771919525 8.85103952589449 L6.9838420771919525 8.85103952589449 L7.46658378391925 10.966069136345123 L7.46658378391925 10.966069136345123 z"/>
<path fill="#000000" stroke="#000000" d="M7.466580638970365 10.966068673164363 L7.466580638970365 10.966068673164363 L8.959689122573918 11.685111821994031 L9.42116215633764 11.90734552231875 L9.42116215633764 11.90734552231875 z"/>
<path fill="#000000" stroke="#000000" d="M6.983843516478295 8.851042804297862 L6.983843516478295 8.851042804297862 L8.336453861443887 7.154923079398743 L8.336453861443887 7.154923079398743 L7.894369369987033 7.709279497581424 z"/>
<path fill="#000000" stroke="#000000" d="M11.858483168884002 8.851040723277093 L11.858483168884002 8.851040723277093 L11.375741462156704 10.966070333727727 L11.375741462156704 10.966070333727727 z"/>
<path fill="#000000" stroke="#000000" d="M11.375740400079316 10.96607083077326 L11.375740400079316 10.96607083077326 L10.280770306398578 11.493380636243204 L9.42115888271204 11.907347679927646 L9.42115888271204 11.907347679927646 z"/>
</svg>